# xmcd
#
# Track frame offsets:
#	183
#	20438
#	33013
#	41104
#	53854
#	73624
#	91117
#	101851
#	123919
#	132881
#	159457
#	176674
#	198377
#	211708
#	222766
#	247461
#	264841
#	283195
#	302503
#
# Disc length: 4271 seconds
#
# Revision: 1
# Processed by: cddbd v1.5.2PL0 Copyright (c) Steve Scherf et al.
# Submitted via: audiograbber 1.83.01
#
DISCID=0e10ad13
DTITLE=Gilles SERVAT - Je vous emporte dans mon coeur
DYEAR=2007
DGENRE=Chanson bretonne
TTITLE0=Kalondour
TTITLE1=Chantez la vie, l'amour est mort
TTITLE2=Liberté couleur des feuilles
TTITLE3=Yawankiz ma bro
TTITLE4=Eléanor
TTITLE5=Sur les quais de Dublin
TTITLE6=Comme je voudrai
TTITLE7=Le pays
TTITLE8=Ar Brezoneg eo ma Bro
TTITLE9=Sur la montagne de Brasparzh
TTITLE10=Il est des êtres beaux
TTITLE11=Sous le ciel de cuivre et d'eau
TTITLE12=Yezhoù bihan
TTITLE13=Me 'garje Bout
TTITLE14=La maison d'Irlande
TTITLE15=Men du
TTITLE16=Tregont vlé Zo
TTITLE17=Au bord du lac Pontchartrain
TTITLE18=Histoires maternelles
EXTD=CD 1
EXTT0=
EXTT1=
EXTT2=
EXTT3=
EXTT4=
EXTT5=
EXTT6=
EXTT7=
EXTT8=
EXTT9=
EXTT10=
EXTT11=
EXTT12=
EXTT13=
EXTT14=
EXTT15=
EXTT16=
EXTT17=
EXTT18=
PLAYORDER=
